<svg width="54" height="54" viewBox="0 0 54 54" fill="none" xmlns="http://www.w3.org/2000/svg">
<path d="M36.4587 17.1414C33.9353 14.8948 30.672 13.6577 27.2934 13.6667C19.7654 13.6667 13.6667 19.6374 13.6667 27.0001C13.6667 34.3627 19.7654 40.3334 27.2907 40.3334C36.5441 40.3334 39.9601 33.4801 40.3334 28.1121H29.2427" stroke="black" stroke-width="5"/>
<path d="M51 16.3333V37.6667C51 41.2029 49.5952 44.5943 47.0948 47.0948C44.5943 49.5952 41.2029 51 37.6667 51H16.3333C12.7971 51 9.40573 49.5952 6.90524 47.0948C4.40476 44.5943 3 41.2029 3 37.6667V16.3333C3 12.7971 4.40476 9.40573 6.90524 6.90524C9.40573 4.40476 12.7971 3 16.3333 3H37.6667C41.2029 3 44.5943 4.40476 47.0948 6.90524C49.5952 9.40573 51 12.7971 51 16.3333Z" stroke="black" stroke-width="5" stroke-linecap="round" stroke-linejoin="round"/>
</svg>
